<svg width="26" height="33" viewBox="0 0 26 33" fill="none" xmlns="http://www.w3.org/2000/svg">
<path d="M1.7614 31.4682L1.76139 31.4682L1.75547 31.4722C1.73821 31.4838 1.70113 31.5 1.64531 31.5C1.58304 31.5 1.54029 31.4768 1.51664 31.4543C1.50544 31.4436 1.5011 31.4356 1.5 31.4332V3.09375C1.5 2.28296 2.21365 1.5 3.25 1.5H22.75C23.7863 1.5 24.5 2.28296 24.5 3.09375V31.4332C24.4989 31.4356 24.4946 31.4436 24.4834 31.4543C24.4597 31.4768 24.417 31.5 24.3547 31.5C24.2989 31.5 24.2618 31.4838 24.2445 31.4722L24.2445 31.4721L24.2386 31.4682L13.8318 24.533L13 23.9787L12.1682 24.533L1.7614 31.4682Z" fill="white" stroke="white" stroke-width="3"/>
</svg>
