<svg width="241" height="27" viewBox="0 0 241 27" fill="none" xmlns="http://www.w3.org/2000/svg">
<path d="M7.524 26V7.388H0.144V0.799998H23.4V7.388H16.02V26H7.524ZM41.9507 0.799998H50.4467V26H41.9507V0.799998ZM34.1027 26H25.6067V0.799998H34.1027V26ZM42.5267 16.712H33.5267V9.728H42.5267V16.712ZM62.3163 10.16H73.5483V16.28H62.3163V10.16ZM62.8923 19.592H75.4923V26H54.5403V0.799998H75.0243V7.208H62.8923V19.592ZM102.588 26.576C100.572 26.576 98.6999 26.264 96.9719 25.64C95.2679 24.992 93.7799 24.08 92.5079 22.904C91.2599 21.728 90.2879 20.336 89.5919 18.728C88.8959 17.12 88.5479 15.344 88.5479 13.4C88.5479 11.456 88.8959 9.68 89.5919 8.072C90.2879 6.464 91.2599 5.072 92.5079 3.896C93.7799 2.72 95.2679 1.82 96.9719 1.196C98.6999 0.547999 100.572 0.223999 102.588 0.223999C105.06 0.223999 107.244 0.655999 109.14 1.52C111.06 2.384 112.644 3.632 113.892 5.264L108.528 10.052C107.784 9.116 106.956 8.396 106.044 7.892C105.156 7.364 104.148 7.1 103.02 7.1C102.132 7.1 101.328 7.244 100.608 7.532C99.8879 7.82 99.2639 8.24 98.7359 8.792C98.2319 9.344 97.8359 10.016 97.5479 10.808C97.2599 11.576 97.1159 12.44 97.1159 13.4C97.1159 14.36 97.2599 15.236 97.5479 16.028C97.8359 16.796 98.2319 17.456 98.7359 18.008C99.2639 18.56 99.8879 18.98 100.608 19.268C101.328 19.556 102.132 19.7 103.02 19.7C104.148 19.7 105.156 19.448 106.044 18.944C106.956 18.416 107.784 17.684 108.528 16.748L113.892 21.536C112.644 23.144 111.06 24.392 109.14 25.28C107.244 26.144 105.06 26.576 102.588 26.576ZM129.03 26.576C126.99 26.576 125.094 26.252 123.342 25.604C121.614 24.956 120.114 24.044 118.842 22.868C117.57 21.668 116.574 20.264 115.854 18.656C115.158 17.048 114.81 15.296 114.81 13.4C114.81 11.48 115.158 9.728 115.854 8.144C116.574 6.536 117.57 5.144 118.842 3.968C120.114 2.768 121.614 1.844 123.342 1.196C125.094 0.547999 126.99 0.223999 129.03 0.223999C131.094 0.223999 132.99 0.547999 134.718 1.196C136.446 1.844 137.946 2.768 139.218 3.968C140.49 5.144 141.474 6.536 142.17 8.144C142.89 9.728 143.25 11.48 143.25 13.4C143.25 15.296 142.89 17.048 142.17 18.656C141.474 20.264 140.49 21.668 139.218 22.868C137.946 24.044 136.446 24.956 134.718 25.604C132.99 26.252 131.094 26.576 129.03 26.576ZM129.03 19.7C129.822 19.7 130.554 19.556 131.226 19.268C131.922 18.98 132.522 18.572 133.026 18.044C133.554 17.492 133.962 16.832 134.25 16.064C134.538 15.272 134.682 14.384 134.682 13.4C134.682 12.416 134.538 11.54 134.25 10.772C133.962 9.98 133.554 9.32 133.026 8.792C132.522 8.24 131.922 7.82 131.226 7.532C130.554 7.244 129.822 7.1 129.03 7.1C128.238 7.1 127.494 7.244 126.798 7.532C126.126 7.82 125.526 8.24 124.998 8.792C124.494 9.32 124.098 9.98 123.81 10.772C123.522 11.54 123.378 12.416 123.378 13.4C123.378 14.384 123.522 15.272 123.81 16.064C124.098 16.832 124.494 17.492 124.998 18.044C125.526 18.572 126.126 18.98 126.798 19.268C127.494 19.556 128.238 19.7 129.03 19.7ZM146.333 26V0.799998H153.317L163.397 17.252H159.725L169.517 0.799998H176.501L176.573 26H168.833L168.761 12.464H169.985L163.289 23.732H159.545L152.561 12.464H154.073V26H146.333ZM180.681 26V0.799998H189.177V26H180.681ZM206.299 26.576C204.283 26.576 202.411 26.264 200.683 25.64C198.979 24.992 197.491 24.08 196.219 22.904C194.971 21.728 193.999 20.336 193.303 18.728C192.607 17.12 192.259 15.344 192.259 13.4C192.259 11.456 192.607 9.68 193.303 8.072C193.999 6.464 194.971 5.072 196.219 3.896C197.491 2.72 198.979 1.82 200.683 1.196C202.411 0.547999 204.283 0.223999 206.299 0.223999C208.771 0.223999 210.955 0.655999 212.851 1.52C214.771 2.384 216.355 3.632 217.603 5.264L212.239 10.052C211.495 9.116 210.667 8.396 209.755 7.892C208.867 7.364 207.859 7.1 206.731 7.1C205.843 7.1 205.039 7.244 204.319 7.532C203.599 7.82 202.975 8.24 202.447 8.792C201.943 9.344 201.547 10.016 201.259 10.808C200.971 11.576 200.827 12.44 200.827 13.4C200.827 14.36 200.971 15.236 201.259 16.028C201.547 16.796 201.943 17.456 202.447 18.008C202.975 18.56 203.599 18.98 204.319 19.268C205.039 19.556 205.843 19.7 206.731 19.7C207.859 19.7 208.867 19.448 209.755 18.944C210.667 18.416 211.495 17.684 212.239 16.748L217.603 21.536C216.355 23.144 214.771 24.392 212.851 25.28C210.955 26.144 208.771 26.576 206.299 26.576ZM229.1 26.576C226.988 26.576 224.948 26.336 222.98 25.856C221.012 25.376 219.392 24.752 218.12 23.984L220.856 17.792C222.056 18.488 223.388 19.052 224.852 19.484C226.34 19.892 227.78 20.096 229.172 20.096C229.988 20.096 230.624 20.048 231.08 19.952C231.56 19.832 231.908 19.676 232.124 19.484C232.34 19.268 232.448 19.016 232.448 18.728C232.448 18.272 232.196 17.912 231.692 17.648C231.188 17.384 230.516 17.168 229.676 17C228.86 16.808 227.96 16.616 226.976 16.424C225.992 16.208 224.996 15.932 223.988 15.596C223.004 15.26 222.092 14.816 221.252 14.264C220.436 13.712 219.776 12.992 219.272 12.104C218.768 11.192 218.516 10.064 218.516 8.72C218.516 7.16 218.948 5.744 219.812 4.472C220.7 3.176 222.008 2.144 223.736 1.376C225.488 0.607999 227.66 0.223999 230.252 0.223999C231.956 0.223999 233.636 0.403999 235.292 0.763999C236.948 1.124 238.436 1.676 239.756 2.42L237.2 8.576C235.952 7.952 234.74 7.484 233.564 7.172C232.412 6.86 231.284 6.704 230.18 6.704C229.364 6.704 228.716 6.776 228.236 6.92C227.756 7.064 227.408 7.256 227.192 7.496C227 7.736 226.904 8 226.904 8.288C226.904 8.72 227.156 9.068 227.66 9.332C228.164 9.572 228.824 9.776 229.64 9.944C230.48 10.112 231.392 10.292 232.376 10.484C233.384 10.676 234.38 10.94 235.364 11.276C236.348 11.612 237.248 12.056 238.064 12.608C238.904 13.16 239.576 13.88 240.08 14.768C240.584 15.656 240.836 16.76 240.836 18.08C240.836 19.616 240.392 21.032 239.504 22.328C238.64 23.6 237.344 24.632 235.616 25.424C233.888 26.192 231.716 26.576 229.1 26.576Z" fill="white"/>
</svg>
