<svg width="42" height="42" viewBox="0 0 42 42" fill="none" xmlns="http://www.w3.org/2000/svg">
<g clip-path="url(#clip0_58_2)">
<path d="M28.875 0C27.8168 0 26.857 0.639844 26.4469 1.62422C26.0367 2.60859 26.2664 3.73242 27.0129 4.48711L30.409 7.875L16.5211 21.7711C15.4957 22.7965 15.4957 24.4617 16.5211 25.4871C17.5465 26.5125 19.2117 26.5125 20.2371 25.4871L34.125 11.591L37.5211 14.9871C38.2758 15.7418 39.3996 15.9633 40.384 15.5531C41.3684 15.143 42.0082 14.1914 42.0082 13.125V2.625C42.0082 1.17305 40.8352 0 39.3832 0H28.875ZM6.5625 2.625C2.93672 2.625 0 5.56172 0 9.1875V35.4375C0 39.0633 2.93672 42 6.5625 42H32.8125C36.4383 42 39.375 39.0633 39.375 35.4375V26.25C39.375 24.798 38.202 23.625 36.75 23.625C35.298 23.625 34.125 24.798 34.125 26.25V35.4375C34.125 36.1594 33.5344 36.75 32.8125 36.75H6.5625C5.84062 36.75 5.25 36.1594 5.25 35.4375V9.1875C5.25 8.46562 5.84062 7.875 6.5625 7.875H15.75C17.202 7.875 18.375 6.70195 18.375 5.25C18.375 3.79805 17.202 2.625 15.75 2.625H6.5625Z" fill="white"/>
</g>
<defs>
<clipPath id="clip0_58_2">
<rect width="42" height="42" fill="white"/>
</clipPath>
</defs>
</svg>
