<svg width="28" height="28" viewBox="0 0 28 28" fill="none" xmlns="http://www.w3.org/2000/svg">
<g clip-path="url(#clip0_2_67)">
<path d="M22.75 11.375C22.75 13.8852 21.9352 16.2039 20.5625 18.0852L27.4859 25.0141C28.1695 25.6977 28.1695 26.8078 27.4859 27.4914C26.8023 28.175 25.6922 28.175 25.0086 27.4914L18.0852 20.5625C16.2039 21.9406 13.8852 22.75 11.375 22.75C5.09141 22.75 0 17.6586 0 11.375C0 5.09141 5.09141 0 11.375 0C17.6586 0 22.75 5.09141 22.75 11.375ZM11.375 19.25C15.7227 19.25 19.25 15.7227 19.25 11.375C19.25 7.02734 15.7227 3.5 11.375 3.5C7.02734 3.5 3.5 7.02734 3.5 11.375C3.5 15.7227 7.02734 19.25 11.375 19.25Z" fill="#6D6868"/>
</g>
<defs>
<clipPath id="clip0_2_67">
<rect width="28" height="28" fill="white"/>
</clipPath>
</defs>
</svg>
